PathFileType	4	(X/Y/Z)	C:\Data\4407\4407cd02.trc
DataRate	CameraRate	NumFrames	NumMarkers	Units	OrigDataRate	OrigDataStartFrame	OrigNumFrames
200.00	200.00	      11	29	mm	200.00	1501	      2000
Frame#	Time	Offset			RShoulder			RUpperArm			RElbow			RForearm			RWrist			LShoulder			LUpperArm			LElbow			LForearm			LWrist			LPSIS			RPSIS			RASIS			RThigh			RKnee			RShank			RAnkle			RHeel			RLat5			RToe			LASIS			LThigh			LKnee			LShank			LAnkle			LHeel			LLat5			LToe			
		X1	Y1	Z1	X2	Y2	Z2	X3	Y3	Z3	X4	Y4	Z4	X5	Y5	Z5	X6	Y6	Z6	X7	Y7	Z7	X8	Y8	Z8	X9	Y9	Z9	X10	Y10	Z10	X11	Y11	Z11	X12	Y12	Z12	X13	Y13	Z13	X14	Y14	Z14	X15	Y15	Z15	X16	Y16	Z16	X17	Y17	Z17	X18	Y18	Z18	X19	Y19	Z19	X20	Y20	Z20	X21	Y21	Z21	X22	Y22	Z22	X23	Y23	Z23	X24	Y24	Z24	X25	Y25	Z25	X26	Y26	Z26	X27	Y27	Z27	X28	Y28	Z28	X29	Y29	Z29	

1501	7.500	351.41766	-216.83687	1368.22107	466.28903	-91.70622	1482.35205	520.40326	-193.01950	1307.28687	621.97791	-178.04379	1185.62585	665.02747	-129.58250	1031.73682	744.02777	-16.17184	1011.32343	115.52289	-99.63442	1484.63586	66.48115	-208.88573	1283.61230	-19.51701	-196.25807	1192.89246	-81.76479	-151.79259	1050.48682	-171.48894	-32.81219	1007.15607	281.29575	-228.95323	996.03137	330.58255	-222.13068	995.62317	392.48199	1.79824	1000.17834	339.50708	84.04697	714.70056	405.59387	86.23985	518.85455	359.98026	123.80869	449.38367	372.31000	108.54699	104.45150	324.33881	55.83422	67.63783	406.00754	255.39561	72.90892	297.77716	263.30301	68.91203	145.23262	-37.39519	968.83563	164.30722	-73.98049	630.98267	125.99269	-203.43883	492.59140	172.55368	-221.90593	410.67947	189.29565	-509.51636	202.16501	239.12775	-560.83679	236.61165	177.94781	-460.96933	57.09348	291.40582	-455.64795	60.71413	
1502	7.505	351.95102	-216.57085	1368.91846	466.54013	-91.38601	1483.20007	520.57532	-192.57756	1308.09558	621.96454	-177.45648	1186.20032	664.85669	-129.39529	1032.30396	744.04425	-16.10399	1011.37445	115.88940	-99.72422	1485.34680	66.84403	-208.34381	1284.10132	-19.07868	-195.44441	1193.65759	-81.33834	-151.26538	1051.02832	-171.50447	-32.81299	1007.29541	281.10016	-228.35631	996.89233	330.61633	-221.53084	996.74084	393.19614	2.12701	1001.13574	340.34982	82.69788	715.68774	406.47058	84.64231	518.83588	360.80008	122.02705	449.24451	372.23978	103.60929	104.01597	324.48398	50.41360	67.91043	406.22058	250.09933	71.60191	297.85025	257.74304	67.86993	146.06815	-36.18936	969.10150	162.85785	-69.77406	631.24713	124.37911	-198.57837	491.97025	170.08125	-217.82597	409.76355	188.20335	-508.85333	206.16017	238.36310	-558.14075	242.87816	177.58786	-465.90045	58.23817	290.69958	-458.55032	63.61556	
1503	7.510	352.48727	-216.07529	1369.64868	466.80106	-90.87753	1484.07434	520.82147	-191.85896	1308.94812	622.03552	-176.87329	1186.83435	664.74170	-129.03275	1032.66040	744.01904	-16.00677	1011.57892	116.27946	-99.82300	1486.06506	67.49496	-207.68449	1284.88159	-18.66507	-194.63710	1194.29517	-81.03955	-150.91779	1051.42126	-171.50931	-32.79561	1007.37634	280.97119	-227.79271	997.55090	330.17365	-221.31184	997.86688	394.01569	2.37878	1002.10272	341.44763	82.75518	716.51379	407.48206	82.87563	518.79358	361.64566	119.97942	448.89825	372.31839	98.44214	103.78889	324.92813	44.99550	68.24525	406.26404	244.82545	70.47381	297.94617	252.24455	66.95113	146.86389	-35.11616	969.53558	161.35999	-65.67689	631.36359	122.79788	-193.43611	491.33127	167.84740	-213.34131	408.77557	186.94238	-507.70496	210.66173	237.46255	-554.77460	249.17221	177.30562	-470.41617	59.95016	290.03625	-461.00363	66.85025	
1504	7.515	353.03314	-215.72940	1370.28333	467.10703	-90.40857	1484.93787	521.13220	-191.30037	1309.76099	622.11450	-176.27995	1187.58557	664.52051	-128.73932	1033.18030	744.14569	-15.89722	1011.79584	116.66702	-99.93019	1486.88586	67.83025	-207.16383	1285.31738	-18.34059	-193.82224	1194.92749	-80.46030	-150.28024	1051.99036	-171.51839	-32.65432	1007.46753	280.82840	-227.25414	998.30371	330.29959	-220.77176	998.85767	395.00195	2.54998	1003.34326	342.55988	83.83965	717.26666	408.65689	80.78398	518.79529	362.48679	117.47295	448.53973	372.35992	93.22037	103.59885	325.07941	39.43456	68.53606	406.35352	239.45450	69.52328	298.07092	246.68369	66.14248	147.71629	-34.14419	969.93378	160.21924	-61.40307	631.60535	121.55897	-187.83919	490.65384	165.79517	-208.59258	407.89365	185.70386	-506.04037	214.79533	236.61748	-550.65875	255.55347	177.33745	-474.79327	61.57964	289.40259	-463.09988	69.86817	
1505	7.520	353.52557	-215.47134	1371.10620	467.29562	-90.01113	1485.87952	521.57489	-190.63210	1310.87000	622.19769	-175.65831	1188.30237	664.43671	-128.41422	1033.85034	744.13470	-15.71131	1011.97644	116.95129	-99.96541	1487.62976	68.29549	-206.55634	1285.99878	-18.14339	-192.83121	1195.60901	-80.20489	-149.75356	1052.50977	-171.57410	-32.49249	1007.53259	280.63943	-226.76024	998.83179	330.11945	-220.60638	999.80035	395.79333	2.73865	1004.37518	345.07373	81.12219	717.99152	409.73395	78.18568	518.64764	363.21729	115.14228	448.27155	372.46631	87.82577	103.52676	325.18539	33.68815	68.81808	406.32974	233.87473	68.75520	298.03043	241.14896	65.37141	148.63885	-33.11343	970.46387	159.32582	-56.93803	632.02271	120.09002	-182.00966	489.91177	163.87061	-203.48241	407.10727	184.11617	-504.39536	219.62962	236.03906	-546.06689	261.68176	177.24202	-478.67703	63.50232	288.68951	-464.96469	73.11127	
1506	7.525	353.99780	-215.37276	1371.81042	467.37830	-89.68822	1486.78271	521.93170	-189.99199	1311.76855	622.36072	-174.86084	1189.14612	664.39813	-128.08008	1034.46326	744.33630	-15.32228	1012.16125	117.17865	-100.02354	1488.43054	68.68788	-205.99225	1286.76514	-18.00367	-191.90833	1196.21851	-80.01231	-149.27344	1052.92261	-171.72919	-32.25097	1007.60242	280.60129	-226.51639	999.59937	330.24451	-220.27750	1000.74915	396.49704	2.69947	1005.36169	346.79303	80.97432	718.29572	410.59155	75.91000	518.67487	363.92090	112.75542	448.10654	372.68393	82.45631	103.57652	325.24069	27.95410	69.06223	406.15881	228.50148	68.04728	297.81717	235.23227	64.60764	149.51047	-32.29448	971.03711	158.55197	-52.59465	632.32056	118.92252	-175.81041	489.21591	161.91582	-198.38144	406.45068	183.09187	-501.52911	223.69366	235.14430	-540.78577	267.74255	177.09425	-482.06769	65.98878	287.94327	-466.41660	76.20306	
1507	7.530	354.33350	-215.15652	1372.58105	467.45444	-89.27303	1487.78601	522.36823	-189.53239	1312.85168	622.57648	-174.07042	1189.96350	664.47345	-127.64367	1035.18762	744.36798	-15.12527	1012.38385	117.32652	-100.07621	1489.21533	68.96433	-205.28995	1287.12390	-17.79209	-191.00365	1196.87451	-79.86543	-148.70313	1053.22974	-171.70096	-32.07118	1007.60229	280.58682	-226.20779	1000.12494	330.21875	-220.20284	1001.53680	397.62518	2.59324	1006.56830	348.37054	80.93169	718.46521	411.36591	73.55087	518.63629	364.47910	110.16041	448.06821	372.63882	76.75552	103.77337	325.36789	22.30625	69.18626	406.09744	223.11075	67.57122	297.93063	229.67166	63.97933	150.35895	-31.53573	971.51886	158.11345	-48.50789	632.79041	117.69721	-169.55923	488.53693	160.62825	-192.63205	405.81470	182.18602	-497.97113	227.97096	234.26361	-535.09167	273.49411	177.04216	-485.05817	68.35543	287.14697	-467.47556	79.23141	
1508	7.535	354.71347	-214.98018	1373.38318	467.51187	-89.00581	1488.66528	522.91833	-188.99959	1313.81152	622.76300	-173.18607	1190.86841	664.50854	-127.07960	1035.80444	744.46155	-14.82474	1012.53381	117.51791	-100.23126	1489.89319	69.24365	-204.47133	1287.63635	-17.96424	-189.93564	1197.43677	-79.63131	-148.04741	1053.65759	-171.68912	-31.81776	1007.64136	280.70755	-226.09341	1000.65338	330.12320	-220.42699	1002.16699	398.56201	2.59432	1007.68042	350.09293	80.70897	718.20825	412.11938	70.44632	518.80927	364.93933	107.14530	447.92816	372.58609	71.15369	103.85347	325.59827	16.69988	69.43761	405.83569	217.50699	67.02364	297.56808	224.41963	64.06231	151.34734	-30.70714	972.11786	158.22351	-43.74085	633.33466	116.92824	-163.07471	487.81726	159.16466	-187.04591	405.31213	181.08594	-494.00269	232.26102	233.80981	-528.91858	278.99963	176.98973	-487.81549	70.65087	286.34909	-467.77658	82.31627	
1509	7.540	354.93976	-214.82176	1374.30859	467.66357	-88.64145	1489.60364	523.56860	-188.41344	1314.75183	623.09302	-172.40022	1191.74744	664.63147	-126.69128	1036.56897	744.73419	-14.54143	1012.73779	117.58222	-100.32487	1490.64563	69.32246	-203.89400	1288.21448	-17.98271	-188.99040	1198.09827	-79.62893	-147.33551	1053.98499	-171.74030	-31.51789	1007.63409	280.70154	-225.99768	1001.12476	330.36465	-220.21962	1003.00330	399.12527	2.52227	1008.77045	351.34702	80.72993	717.83325	412.40469	67.72807	518.74084	365.56937	104.21239	447.55792	372.48978	65.71736	103.93180	325.50058	10.80212	69.69014	405.76288	211.81271	66.74939	297.36392	218.71042	63.41705	152.08551	-30.14374	972.74481	158.46658	-39.12561	633.99695	115.90047	-156.37231	487.31854	158.56255	-180.82303	404.98538	180.18759	-489.40668	236.13995	232.98207	-522.51544	284.12027	176.98354	-489.79504	73.40305	284.91241	-469.03210	85.39429	
1510	7.545	355.32608	-214.77057	1375.12024	467.67865	-88.38692	1490.47961	524.00439	-187.79935	1315.71802	623.43005	-171.45358	1192.55164	664.76910	-126.23704	1037.13416	744.79102	-14.29930	1012.85870	117.64852	-100.42207	1491.32642	69.39091	-203.36382	1288.62073	-18.11449	-187.98381	1198.56665	-79.75216	-146.97327	1054.37256	-171.90120	-31.17687	1007.63275	280.86572	-226.01933	1001.51929	330.60217	-220.37090	1003.57935	400.07602	2.41376	1009.81439	352.93356	79.75085	717.11328	412.97131	64.46272	518.60016	366.10144	100.60596	447.23312	371.77396	62.62666	104.23747	325.36652	4.84301	69.85183	405.58835	206.09019	66.53586	297.19357	212.85942	62.96597	152.94855	-29.65020	973.47449	158.84393	-34.50322	634.72626	115.21250	-149.58606	486.76465	157.86420	-174.69202	404.66122	179.94327	-485.80215	239.07631	232.74535	-516.00256	288.68848	176.71243	-491.25714	75.89851	284.32166	-467.71570	87.08713	
1511	7.550	355.43713	-214.85358	1376.02576	467.78424	-88.08987	1491.40320	524.58051	-187.24193	1316.60718	623.74854	-170.77370	1193.46594	664.88367	-125.87008	1037.83435	744.95074	-14.12854	1013.11230	117.67427	-100.46653	1491.96155	69.30889	-202.69162	1288.88806	-18.28009	-186.95309	1199.14026	-80.01278	-146.37315	1054.61707	-172.02121	-30.83457	1007.63477	280.97415	-226.11180	1001.94043	330.53040	-220.66301	1004.28137	400.78238	2.12965	1010.79596	354.13327	78.71846	716.32660	413.18365	61.43735	518.51276	366.46994	97.19508	447.19992	372.18051	54.07187	104.37570	325.18311	-1.06181	70.06016	405.25989	200.29343	66.24308	297.08340	207.17970	62.42019	153.73781	-29.25949	974.25861	159.38185	-29.82221	635.54742	114.54069	-142.71638	486.45810	157.54741	-168.12543	404.57037	179.02008	-481.33206	242.41170	232.91580	-510.10126	292.68207	175.86621	-491.42017	79.20455	283.20288	-466.95999	89.01263	
